<svg viewBox="0 0 1080 1080" fill="none" xmlns="http://www.w3.org/2000/svg">
<path d="M891 334.916C891 386.124 877.749 433.114 851.247 475.888C824.745 518.661 786.197 553.603 735.602 580.713C685.008 607.823 624.776 623.788 554.907 628.607L516.058 846.391C501 930.13 460.042 972 393.185 972C356.444 972 322.413 961.156 291.093 939.468C260.375 917.78 235.68 884.646 217.008 840.065C198.336 795.484 189 740.662 189 675.598C189 553.302 208.575 449.682 247.726 364.737C287.479 279.19 340.483 215.331 406.737 173.16C473.595 130.387 547.077 109 627.185 109C683.803 109 731.687 118.94 770.838 138.821C810.591 158.702 840.405 185.811 860.282 220.151C880.761 253.888 891 292.143 891 334.916ZM571.17 535.53C694.645 519.866 756.382 455.706 756.382 343.049C756.382 303.288 743.131 271.057 716.629 246.357C690.73 221.054 650.375 208.403 595.564 208.403C533.525 208.403 479.317 227.983 432.938 267.141C387.162 306.3 351.625 360.821 326.328 430.705C301.633 499.986 289.286 579.207 289.286 668.369C289.286 705.72 292.9 738.854 300.127 767.772C307.958 796.689 317.595 819.281 329.039 835.547C341.085 851.21 352.529 859.042 363.371 859.042C378.429 859.042 389.873 838.258 397.703 796.689L427.517 625.896L426.914 630.262L432.046 600.878L436.123 577.532L439.159 558.613L442.876 535.53C450.707 488.539 461.849 425.584 476.305 346.664C479.919 326.181 488.05 311.722 500.699 303.288C513.95 294.251 529.309 289.733 546.776 289.733C566.653 289.733 580.807 293.649 589.239 301.481C598.274 308.71 602.792 320.458 602.792 336.724C602.792 346.363 602.189 354.194 600.985 360.219C589.341 428.682 582.813 467.067 571.17 535.53Z" fill="#F6F6F6"/>
</svg>
